<svg xmlns="http://www.w3.org/2000/svg" width="63" height="24" viewBox="0 0 63 24" fill="none">
  <path d="M10.6949 7.81554C19.7509 4.16136 27.5756 16.3552 30.356 22.9089C24.7952 -0.128333 10.6949 0.864657 4.737 1.06325C-1.2209 1.26185 -0.625109 12.3833 10.6949 7.81554Z" fill="#81AA46" stroke="black" stroke-width="1.50218"/>
  <path d="M52.0395 7.81554C42.9834 4.16136 35.1587 16.3552 32.3784 22.9089C37.9392 -0.128333 52.0395 0.864657 57.9974 1.06325C63.9553 1.26185 63.3595 12.3833 52.0395 7.81554Z" fill="#81AA46" stroke="black" stroke-width="1.50218"/>
  <path d="M11.0736 16.7654C16.1577 14.0645 21.2683 17.3612 23.1881 19.3471C18.4217 11.0061 13.4568 11.6019 8.49189 11.9991C3.52697 12.3963 4.71855 20.1415 11.0736 16.7654Z" fill="#81AA46" stroke="black" stroke-width="1.50218"/>
  <path d="M51.9127 16.7654C46.8286 14.0645 41.718 17.3612 39.7983 19.3471C44.5646 11.0061 49.5295 11.6019 54.4944 11.9991C59.4594 12.3963 58.2678 20.1415 51.9127 16.7654Z" fill="#81AA46" stroke="black" stroke-width="1.50218"/>
</svg>